<mxfile host="app.diagrams.net" modified="2023-06-12T15:13:16.001Z" agent="Mozilla/5.0 (X11; Ubuntu; Linux x86_64; rv:109.0) Gecko/20100101 Firefox/113.0" etag="nO6_RZ4WVkp6paKl7hFQ" version="21.3.8" type="github">
  <diagram id="C5RBs43oDa-KdzZeNtuy" name="Page-1">
    <mxGraphModel dx="2191" dy="886" grid="1" gridSize="10" guides="1" tooltips="1" connect="1" arrows="1" fold="1" page="1" pageScale="1" pageWidth="827" pageHeight="1169" math="0" shadow="0">
      <root>
        <mxCell id="WIyWlLk6GJQsqaUBKTNV-0" />
        <mxCell id="WIyWlLk6GJQsqaUBKTNV-1" parent="WIyWlLk6GJQsqaUBKTNV-0" />
        <mxCell id="-X5VUjv5OPwxfCtjxwFy-38" value="File Manager Current" style="rounded=0;whiteSpace=wrap;html=1;" vertex="1" parent="WIyWlLk6GJQsqaUBKTNV-1">
          <mxGeometry x="-70" y="400" width="580" height="470" as="geometry" />
        </mxCell>
        <mxCell id="-X5VUjv5OPwxfCtjxwFy-52" value="Folder Upload/ User files" style="ellipse;whiteSpace=wrap;html=1;" vertex="1" parent="WIyWlLk6GJQsqaUBKTNV-1">
          <mxGeometry x="570" y="422.5" width="180" height="125" as="geometry" />
        </mxCell>
        <mxCell id="-X5VUjv5OPwxfCtjxwFy-46" value="Melp Uploads" style="rounded=0;whiteSpace=wrap;html=1;" vertex="1" parent="WIyWlLk6GJQsqaUBKTNV-1">
          <mxGeometry x="-40" y="10" width="540" height="250" as="geometry" />
        </mxCell>
        <mxCell id="-X5VUjv5OPwxfCtjxwFy-25" value="" style="edgeStyle=orthogonalEdgeStyle;rounded=0;orthogonalLoop=1;jettySize=auto;html=1;" edge="1" parent="WIyWlLk6GJQsqaUBKTNV-1" source="-X5VUjv5OPwxfCtjxwFy-20" target="-X5VUjv5OPwxfCtjxwFy-23">
          <mxGeometry relative="1" as="geometry" />
        </mxCell>
        <mxCell id="-X5VUjv5OPwxfCtjxwFy-20" value="File Manager Upload " style="rounded=1;whiteSpace=wrap;html=1;" vertex="1" parent="WIyWlLk6GJQsqaUBKTNV-1">
          <mxGeometry x="220" y="455" width="130" height="65" as="geometry" />
        </mxCell>
        <mxCell id="-X5VUjv5OPwxfCtjxwFy-21" value="FileManager_File" style="swimlane;fontStyle=0;childLayout=stackLayout;horizontal=1;startSize=30;horizontalStack=0;resizeParent=1;resizeParentMax=0;resizeLast=0;collapsible=1;marginBottom=0;whiteSpace=wrap;html=1;" vertex="1" parent="WIyWlLk6GJQsqaUBKTNV-1">
          <mxGeometry x="20" y="435" width="140" height="120" as="geometry" />
        </mxCell>
        <mxCell id="-X5VUjv5OPwxfCtjxwFy-22" value="file_id" style="text;strokeColor=none;fillColor=none;align=left;verticalAlign=middle;spacingLeft=4;spacingRight=4;overflow=hidden;points=[[0,0.5],[1,0.5]];portConstraint=eastwest;rotatable=0;whiteSpace=wrap;html=1;" vertex="1" parent="-X5VUjv5OPwxfCtjxwFy-21">
          <mxGeometry y="30" width="140" height="30" as="geometry" />
        </mxCell>
        <mxCell id="-X5VUjv5OPwxfCtjxwFy-23" value="file_type" style="text;strokeColor=none;fillColor=none;align=left;verticalAlign=middle;spacingLeft=4;spacingRight=4;overflow=hidden;points=[[0,0.5],[1,0.5]];portConstraint=eastwest;rotatable=0;whiteSpace=wrap;html=1;" vertex="1" parent="-X5VUjv5OPwxfCtjxwFy-21">
          <mxGeometry y="60" width="140" height="30" as="geometry" />
        </mxCell>
        <mxCell id="-X5VUjv5OPwxfCtjxwFy-24" value="file_url" style="text;strokeColor=none;fillColor=none;align=left;verticalAlign=middle;spacingLeft=4;spacingRight=4;overflow=hidden;points=[[0,0.5],[1,0.5]];portConstraint=eastwest;rotatable=0;whiteSpace=wrap;html=1;" vertex="1" parent="-X5VUjv5OPwxfCtjxwFy-21">
          <mxGeometry y="90" width="140" height="30" as="geometry" />
        </mxCell>
        <mxCell id="-X5VUjv5OPwxfCtjxwFy-28" value="" style="edgeStyle=orthogonalEdgeStyle;rounded=0;orthogonalLoop=1;jettySize=auto;html=1;entryX=1;entryY=0.5;entryDx=0;entryDy=0;" edge="1" parent="WIyWlLk6GJQsqaUBKTNV-1" target="-X5VUjv5OPwxfCtjxwFy-20">
          <mxGeometry relative="1" as="geometry">
            <mxPoint x="570" y="485" as="sourcePoint" />
            <mxPoint x="390" y="485" as="targetPoint" />
          </mxGeometry>
        </mxCell>
        <mxCell id="-X5VUjv5OPwxfCtjxwFy-30" value="User Files and Folder Mapping" style="swimlane;fontStyle=0;childLayout=stackLayout;horizontal=1;startSize=30;horizontalStack=0;resizeParent=1;resizeParentMax=0;resizeLast=0;collapsible=1;marginBottom=0;whiteSpace=wrap;html=1;" vertex="1" parent="WIyWlLk6GJQsqaUBKTNV-1">
          <mxGeometry x="20" y="605" width="140" height="60" as="geometry" />
        </mxCell>
        <mxCell id="-X5VUjv5OPwxfCtjxwFy-31" value="Item 1" style="text;strokeColor=none;fillColor=none;align=left;verticalAlign=middle;spacingLeft=4;spacingRight=4;overflow=hidden;points=[[0,0.5],[1,0.5]];portConstraint=eastwest;rotatable=0;whiteSpace=wrap;html=1;" vertex="1" parent="-X5VUjv5OPwxfCtjxwFy-30">
          <mxGeometry y="30" width="140" height="30" as="geometry" />
        </mxCell>
        <mxCell id="-X5VUjv5OPwxfCtjxwFy-34" value="Shared Files Folder Map" style="swimlane;fontStyle=0;childLayout=stackLayout;horizontal=1;startSize=30;horizontalStack=0;resizeParent=1;resizeParentMax=0;resizeLast=0;collapsible=1;marginBottom=0;whiteSpace=wrap;html=1;" vertex="1" parent="WIyWlLk6GJQsqaUBKTNV-1">
          <mxGeometry x="20" y="700" width="140" height="120" as="geometry" />
        </mxCell>
        <mxCell id="-X5VUjv5OPwxfCtjxwFy-35" value="File_id" style="text;strokeColor=none;fillColor=none;align=left;verticalAlign=middle;spacingLeft=4;spacingRight=4;overflow=hidden;points=[[0,0.5],[1,0.5]];portConstraint=eastwest;rotatable=0;whiteSpace=wrap;html=1;" vertex="1" parent="-X5VUjv5OPwxfCtjxwFy-34">
          <mxGeometry y="30" width="140" height="30" as="geometry" />
        </mxCell>
        <mxCell id="-X5VUjv5OPwxfCtjxwFy-36" value="Owner_id" style="text;strokeColor=none;fillColor=none;align=left;verticalAlign=middle;spacingLeft=4;spacingRight=4;overflow=hidden;points=[[0,0.5],[1,0.5]];portConstraint=eastwest;rotatable=0;whiteSpace=wrap;html=1;" vertex="1" parent="-X5VUjv5OPwxfCtjxwFy-34">
          <mxGeometry y="60" width="140" height="30" as="geometry" />
        </mxCell>
        <mxCell id="-X5VUjv5OPwxfCtjxwFy-37" value="Shared_To_user_id&lt;br&gt;Permission level" style="text;strokeColor=none;fillColor=none;align=left;verticalAlign=middle;spacingLeft=4;spacingRight=4;overflow=hidden;points=[[0,0.5],[1,0.5]];portConstraint=eastwest;rotatable=0;whiteSpace=wrap;html=1;" vertex="1" parent="-X5VUjv5OPwxfCtjxwFy-34">
          <mxGeometry y="90" width="140" height="30" as="geometry" />
        </mxCell>
        <mxCell id="-X5VUjv5OPwxfCtjxwFy-4" value="Upload files in One to One ,&lt;br&gt;Group ,&lt;br&gt;Teams " style="ellipse;whiteSpace=wrap;html=1;aspect=fixed;" vertex="1" parent="WIyWlLk6GJQsqaUBKTNV-1">
          <mxGeometry x="580" y="45" width="130" height="130" as="geometry" />
        </mxCell>
        <mxCell id="-X5VUjv5OPwxfCtjxwFy-10" value="" style="endArrow=none;html=1;rounded=0;" edge="1" parent="WIyWlLk6GJQsqaUBKTNV-1" source="-X5VUjv5OPwxfCtjxwFy-0" target="-X5VUjv5OPwxfCtjxwFy-4">
          <mxGeometry width="50" height="50" relative="1" as="geometry">
            <mxPoint x="390" y="360" as="sourcePoint" />
            <mxPoint x="440" y="310" as="targetPoint" />
          </mxGeometry>
        </mxCell>
        <mxCell id="-X5VUjv5OPwxfCtjxwFy-12" value="Melp_File " style="swimlane;fontStyle=0;childLayout=stackLayout;horizontal=1;startSize=30;horizontalStack=0;resizeParent=1;resizeParentMax=0;resizeLast=0;collapsible=1;marginBottom=0;whiteSpace=wrap;html=1;" vertex="1" parent="WIyWlLk6GJQsqaUBKTNV-1">
          <mxGeometry x="10" y="50" width="140" height="120" as="geometry" />
        </mxCell>
        <mxCell id="-X5VUjv5OPwxfCtjxwFy-13" value="file_id&lt;span style=&quot;white-space: pre;&quot;&gt;&#x9;&lt;/span&gt;" style="text;strokeColor=none;fillColor=none;align=left;verticalAlign=middle;spacingLeft=4;spacingRight=4;overflow=hidden;points=[[0,0.5],[1,0.5]];portConstraint=eastwest;rotatable=0;whiteSpace=wrap;html=1;" vertex="1" parent="-X5VUjv5OPwxfCtjxwFy-12">
          <mxGeometry y="30" width="140" height="30" as="geometry" />
        </mxCell>
        <mxCell id="-X5VUjv5OPwxfCtjxwFy-14" value="file_name" style="text;strokeColor=none;fillColor=none;align=left;verticalAlign=middle;spacingLeft=4;spacingRight=4;overflow=hidden;points=[[0,0.5],[1,0.5]];portConstraint=eastwest;rotatable=0;whiteSpace=wrap;html=1;" vertex="1" parent="-X5VUjv5OPwxfCtjxwFy-12">
          <mxGeometry y="60" width="140" height="30" as="geometry" />
        </mxCell>
        <mxCell id="-X5VUjv5OPwxfCtjxwFy-15" value="file_url" style="text;strokeColor=none;fillColor=none;align=left;verticalAlign=middle;spacingLeft=4;spacingRight=4;overflow=hidden;points=[[0,0.5],[1,0.5]];portConstraint=eastwest;rotatable=0;whiteSpace=wrap;html=1;" vertex="1" parent="-X5VUjv5OPwxfCtjxwFy-12">
          <mxGeometry y="90" width="140" height="30" as="geometry" />
        </mxCell>
        <mxCell id="-X5VUjv5OPwxfCtjxwFy-0" value="Existing Melp Upload" style="rounded=0;whiteSpace=wrap;html=1;" vertex="1" parent="WIyWlLk6GJQsqaUBKTNV-1">
          <mxGeometry x="294" y="50" width="120" height="60" as="geometry" />
        </mxCell>
        <mxCell id="-X5VUjv5OPwxfCtjxwFy-17" value="" style="rounded=0;orthogonalLoop=1;jettySize=auto;html=1;edgeStyle=orthogonalEdgeStyle;" edge="1" parent="WIyWlLk6GJQsqaUBKTNV-1" source="-X5VUjv5OPwxfCtjxwFy-0" target="-X5VUjv5OPwxfCtjxwFy-15">
          <mxGeometry relative="1" as="geometry" />
        </mxCell>
        <mxCell id="-X5VUjv5OPwxfCtjxwFy-48" value="Share Files which &lt;br&gt;he got from melp group,topic,one2one&lt;br&gt;&lt;br&gt;To Other user/groups" style="ellipse;whiteSpace=wrap;html=1;aspect=fixed;" vertex="1" parent="WIyWlLk6GJQsqaUBKTNV-1">
          <mxGeometry x="-310" y="390" width="150" height="150" as="geometry" />
        </mxCell>
        <mxCell id="-X5VUjv5OPwxfCtjxwFy-55" value="Get Files shared in topic , group and 1to1" style="ellipse;whiteSpace=wrap;html=1;" vertex="1" parent="WIyWlLk6GJQsqaUBKTNV-1">
          <mxGeometry x="-410" y="170" width="150" height="110" as="geometry" />
        </mxCell>
        <mxCell id="-X5VUjv5OPwxfCtjxwFy-56" value="" style="endArrow=classic;startArrow=classic;html=1;rounded=0;entryX=0.021;entryY=-0.167;entryDx=0;entryDy=0;entryPerimeter=0;" edge="1" parent="WIyWlLk6GJQsqaUBKTNV-1" target="-X5VUjv5OPwxfCtjxwFy-13">
          <mxGeometry width="100" height="100" relative="1" as="geometry">
            <mxPoint x="-260" y="220" as="sourcePoint" />
            <mxPoint x="-160" y="120" as="targetPoint" />
            <Array as="points">
              <mxPoint x="-210" y="170" />
            </Array>
          </mxGeometry>
        </mxCell>
        <mxCell id="-X5VUjv5OPwxfCtjxwFy-57" value="File Manager Client" style="shape=umlActor;verticalLabelPosition=bottom;verticalAlign=top;html=1;outlineConnect=0;" vertex="1" parent="WIyWlLk6GJQsqaUBKTNV-1">
          <mxGeometry x="-500" y="350" width="30" height="60" as="geometry" />
        </mxCell>
        <mxCell id="-X5VUjv5OPwxfCtjxwFy-58" value="" style="endArrow=classic;startArrow=classic;html=1;rounded=0;" edge="1" parent="WIyWlLk6GJQsqaUBKTNV-1" source="-X5VUjv5OPwxfCtjxwFy-48" target="-X5VUjv5OPwxfCtjxwFy-15">
          <mxGeometry width="50" height="50" relative="1" as="geometry">
            <mxPoint x="140" y="480" as="sourcePoint" />
            <mxPoint x="190" y="430" as="targetPoint" />
            <Array as="points">
              <mxPoint x="-120" y="370" />
            </Array>
          </mxGeometry>
        </mxCell>
        <mxCell id="-X5VUjv5OPwxfCtjxwFy-59" value="" style="endArrow=classic;startArrow=classic;html=1;rounded=0;exitX=1.015;exitY=0.554;exitDx=0;exitDy=0;exitPerimeter=0;entryX=0.007;entryY=-0.033;entryDx=0;entryDy=0;entryPerimeter=0;" edge="1" parent="WIyWlLk6GJQsqaUBKTNV-1" source="-X5VUjv5OPwxfCtjxwFy-48" target="-X5VUjv5OPwxfCtjxwFy-23">
          <mxGeometry width="50" height="50" relative="1" as="geometry">
            <mxPoint x="140" y="480" as="sourcePoint" />
            <mxPoint x="190" y="430" as="targetPoint" />
            <Array as="points">
              <mxPoint x="-20" y="450" />
            </Array>
          </mxGeometry>
        </mxCell>
        <mxCell id="-X5VUjv5OPwxfCtjxwFy-60" value="" style="endArrow=classic;startArrow=classic;html=1;rounded=0;entryX=0.143;entryY=0.017;entryDx=0;entryDy=0;entryPerimeter=0;" edge="1" parent="WIyWlLk6GJQsqaUBKTNV-1" source="-X5VUjv5OPwxfCtjxwFy-48" target="-X5VUjv5OPwxfCtjxwFy-34">
          <mxGeometry width="50" height="50" relative="1" as="geometry">
            <mxPoint x="100" y="480" as="sourcePoint" />
            <mxPoint x="150" y="430" as="targetPoint" />
            <Array as="points">
              <mxPoint x="-90" y="540" />
            </Array>
          </mxGeometry>
        </mxCell>
        <mxCell id="-X5VUjv5OPwxfCtjxwFy-64" value="Share User Files and&amp;nbsp; and directory with &lt;br&gt;Other Users&lt;br&gt;and groups " style="ellipse;whiteSpace=wrap;html=1;aspect=fixed;" vertex="1" parent="WIyWlLk6GJQsqaUBKTNV-1">
          <mxGeometry x="-330" y="630" width="140" height="140" as="geometry" />
        </mxCell>
        <mxCell id="-X5VUjv5OPwxfCtjxwFy-65" value="" style="endArrow=classic;startArrow=classic;html=1;rounded=0;entryX=-0.021;entryY=0.8;entryDx=0;entryDy=0;entryPerimeter=0;" edge="1" parent="WIyWlLk6GJQsqaUBKTNV-1" source="-X5VUjv5OPwxfCtjxwFy-64" target="-X5VUjv5OPwxfCtjxwFy-35">
          <mxGeometry width="50" height="50" relative="1" as="geometry">
            <mxPoint x="70" y="470" as="sourcePoint" />
            <mxPoint x="120" y="420" as="targetPoint" />
            <Array as="points">
              <mxPoint x="-100" y="720" />
            </Array>
          </mxGeometry>
        </mxCell>
        <mxCell id="-X5VUjv5OPwxfCtjxwFy-66" value="&lt;div&gt;File Manager Client&lt;/div&gt;&lt;div&gt;&lt;br&gt;&lt;/div&gt;" style="shape=umlActor;verticalLabelPosition=bottom;verticalAlign=top;html=1;outlineConnect=0;" vertex="1" parent="WIyWlLk6GJQsqaUBKTNV-1">
          <mxGeometry x="790" y="300" width="30" height="60" as="geometry" />
        </mxCell>
      </root>
    </mxGraphModel>
  </diagram>
</mxfile>
